HIERARCHY
ROOT Hips
{
 OFFSET 0.000000 0.000000 0.000000
 CHANNELS 6 Xposition Yposition Zposition Yrotation Xrotation Zrotation
 JOINT Chest
 {
  OFFSET 0.000000 9.588913 -0.003946
  CHANNELS 3 Yrotation Xrotation Zrotation
  JOINT Chest2
  {
   OFFSET 0.000000 9.541882 0.008053
   CHANNELS 3 Yrotation Xrotation Zrotation
   JOINT Chest3
   {
    OFFSET 0.000000 9.501360 0.000000
    CHANNELS 3 Yrotation Xrotation Zrotation
    JOINT Chest4
    {
     OFFSET 0.000000 9.491660 0.000000
     CHANNELS 3 Yrotation Xrotation Zrotation
     JOINT Neck
     {
      OFFSET 0.000000 14.331917 0.000000
      CHANNELS 3 Yrotation Xrotation Zrotation
      JOINT Head
      {
       OFFSET 0.000000 8.884799 0.017034
       CHANNELS 3 Yrotation Xrotation Zrotation
       End Site
       {
        OFFSET 0.000000 16.896195 0.008993
       }
      }
     }
     JOINT RightCollar
     {
      OFFSET -2.923010 9.499495 0.000000
      CHANNELS 3 Yrotation Xrotation Zrotation
      JOINT RightShoulder
      {
       OFFSET -13.795216 0.000000 0.000000
       CHANNELS 3 Yrotation Xrotation Zrotation
       JOINT RightElbow
       {
        OFFSET -30.272209 0.000000 0.000000
        CHANNELS 3 Yrotation Xrotation Zrotation
        JOINT RightWrist
        {
         OFFSET -24.478199 0.000000 0.000000
         CHANNELS 3 Yrotation Xrotation Zrotation
         End Site
         {
          OFFSET -18.090752 0.000000 0.000000
         }
        }
       }
      }
     }
     JOINT LeftCollar
     {
      OFFSET 2.923010 9.499495 0.000000
      CHANNELS 3 Yrotation Xrotation Zrotation
      JOINT LeftShoulder
      {
       OFFSET 13.795216 0.000000 0.000000
       CHANNELS 3 Yrotation Xrotation Zrotation
       JOINT LeftElbow
       {
        OFFSET 30.272209 0.000000 0.000000
        CHANNELS 3 Yrotation Xrotation Zrotation
        JOINT LeftWrist
        {
         OFFSET 24.478199 0.000000 0.000000
         CHANNELS 3 Yrotation Xrotation Zrotation
         End Site
         {
          OFFSET 18.090752 0.000000 0.000000
         }
        }
       }
      }
     }
    }
   }
  }
 }
 JOINT RightHip
 {
  OFFSET -7.826875 0.019532 0.001973
  CHANNELS 3 Yrotation Xrotation Zrotation
  JOINT RightKnee
  {
   OFFSET 0.000000 -40.546152 -0.001885
   CHANNELS 3 Yrotation Xrotation Zrotation
   JOINT RightAnkle
   {
    OFFSET 0.000000 -39.417092 -0.003189
    CHANNELS 3 Yrotation Xrotation Zrotation
    JOINT RightToe
    {
     OFFSET 0.000000 -7.579396 17.243563
     CHANNELS 3 Yrotation Xrotation Zrotation
     End Site
     {
      OFFSET 0.000000 -1.500329 6.694466
     }
    }
   }
  }
 }
 JOINT LeftHip
 {
  OFFSET 7.826875 0.019532 0.001973
  CHANNELS 3 Yrotation Xrotation Zrotation
  JOINT LeftKnee
  {
   OFFSET 0.000000 -40.546152 -0.001885
   CHANNELS 3 Yrotation Xrotation Zrotation
   JOINT LeftAnkle
   {
    OFFSET 0.000000 -39.417092 -0.003189
    CHANNELS 3 Yrotation Xrotation Zrotation
    JOINT LeftToe
    {
     OFFSET 0.000000 -7.579396 17.243563
     CHANNELS 3 Yrotation Xrotation Zrotation
     End Site
     {
      OFFSET 0.000000 -1.500329 6.694466
     }
    }
   }
  }
 }
}
MOTION
Frames: 12
Frame Time: 0.008333
1.197913 88.400610 25.851550 -54.295959 -8.085200 -0.054913 5.231343 3.006909 -0.795137 2.999013 1.705611 -0.498312 3.746856 2.135902 -0.608948 2.999013 1.705611 -0.498312 3.259536 -0.076165 -3.338759 4.954444 -26.619506 -5.028491 -2.822934 -4.863847 -5.238728 -23.983650 -37.451025 60.999265 101.789941 -23.655508 0.833500 -23.352867 -20.719463 -3.522022 -7.941119 2.578528 2.666328 1.736889 -5.265175 -88.247370 0.928804 2.048904 0.563001 4.103032 4.450252 -4.246695 -11.947488 13.762977 -8.877079 27.313625 1.249910 -4.136689 16.292368 -9.679202 1.834759 -0.031563 0.036835 -0.089819 15.365699 13.443310 9.431763 13.560495 0.384029 -0.281389 10.333198 -3.406859 -6.374756 0.010384 -0.078803 -0.004513
1.190663 88.402660 25.859440 -54.306938 -8.115628 -0.054256 5.240984 3.015037 -0.800444 3.006249 1.709106 -0.499208 3.755895 2.140286 -0.610006 3.006249 1.709106 -0.499208 3.248801 -0.022217 -3.314881 4.929574 -26.552806 -4.991300 -2.804317 -4.857702 -5.219244 -23.939702 -37.309441 60.951703 101.679898 -23.546171 0.851764 -23.291657 -20.676945 -3.492318 -8.009933 2.580312 2.677737 1.758352 -5.321222 -88.111333 0.737396 2.075888 0.395145 4.505969 4.711708 -4.582935 -11.959973 13.745066 -8.896598 27.324482 1.328561 -4.093448 16.302662 -9.707736 1.864634 -0.035560 0.031506 -0.119607 15.376613 13.469972 9.439311 13.558844 0.401538 -0.271704 10.336698 -3.403189 -6.387514 0.010240 -0.090076 -0.000984
1.185041 88.404990 25.865895 -54.322010 -8.144789 -0.058877 5.255562 3.020146 -0.803394 3.015701 1.711739 -0.499077 3.767709 2.143588 -0.609777 3.015700 1.711739 -0.499077 3.233954 0.040731 -3.289468 4.898497 -26.475049 -4.950316 -2.793278 -4.841345 -5.204626 -23.905904 -37.156645 60.916135 101.549978 -23.430855 0.889554 -23.226158 -20.633093 -3.474087 -8.078670 2.575236 2.684479 1.801793 -5.375260 -87.973540 0.525582 2.092886 0.219002 4.919758 4.991745 -4.930638 -11.959787 13.714461 -8.904718 27.332147 1.427995 -4.048097 16.315778 -9.740227 1.902282 -0.040122 0.024060 -0.151469 15.388686 13.490988 9.450290 13.550683 0.422999 -0.258279 10.348223 -3.399716 -6.403407 0.009752 -0.100967 0.002721
1.180923 88.407558 25.871089 -54.339754 -8.176047 -0.068129 5.270413 3.025887 -0.802358 3.026075 1.714098 -0.497927 3.780682 2.146540 -0.608270 3.026075 1.714098 -0.497927 3.218780 0.111950 -3.263381 4.866229 -26.387187 -4.907830 -2.780846 -4.819027 -5.193368 -23.881914 -36.992427 60.884055 101.400623 -23.309436 0.950097 -23.167932 -20.594466 -3.465151 -8.139003 2.564440 2.690284 1.859741 -5.437203 -87.839017 0.307464 2.101099 0.034189 5.329035 5.260723 -5.277035 -11.950481 13.677392 -8.903028 27.335963 1.544309 -4.003027 16.336522 -9.776037 1.942798 -0.038910 0.014793 -0.180518 15.399520 13.508833 9.463895 13.536173 0.449913 -0.240072 10.369275 -3.395626 -6.420710 0.008616 -0.112347 0.004887
1.178365 88.410375 25.875707 -54.359646 -8.212696 -0.078045 5.283866 3.033237 -0.800037 3.035933 1.717340 -0.495788 3.793013 2.150587 -0.605524 3.035933 1.717340 -0.495788 3.206660 0.190523 -3.236713 4.837056 -26.290406 -4.865066 -2.762259 -4.793694 -5.181916 -23.854394 -36.811111 60.843512 101.234636 -23.179095 1.024650 -23.124813 -20.556833 -3.453998 -8.184379 2.547653 2.700121 1.920607 -5.510669 -87.709338 0.091999 2.095800 -0.159290 5.719034 5.497186 -5.611884 -11.935224 13.641796 -8.894740 27.338016 1.671913 -3.963212 16.347457 -9.813716 1.991230 -0.037687 0.004857 -0.208059 15.410085 13.524797 9.478073 13.518045 0.488155 -0.215975 10.391203 -3.392556 -6.440119 0.006783 -0.125533 0.005202
1.177531 88.413471 25.879924 -54.379105 -8.254862 -0.087043 5.296057 3.042905 -0.797639 3.044833 1.722077 -0.492943 3.804148 2.156495 -0.601887 3.044833 1.722077 -0.492943 3.196976 0.275245 -3.210322 4.810573 -26.186215 -4.823004 -2.744955 -4.770668 -5.171032 -23.804672 -36.601373 60.788573 101.055831 -23.041785 1.096639 -23.099694 -20.507554 -3.432013 -8.213492 2.522894 2.711024 1.974777 -5.596086 -87.577581 -0.116895 2.074621 -0.360336 6.080687 5.693144 -5.926904 -11.919874 13.609648 -8.884179 27.339313 1.805234 -3.927765 16.346770 -9.851215 2.048402 -0.038711 -0.005009 -0.234679 15.421611 13.536465 9.492615 13.503112 0.542008 -0.187319 10.405688 -3.391146 -6.462718 0.005250 -0.140771 0.005549
1.178733 88.416961 25.883913 -54.393836 -8.301275 -0.093410 5.306808 3.056217 -0.794423 3.052800 1.728508 -0.489990 3.814117 2.164517 -0.598104 3.052800 1.728508 -0.489990 3.187737 0.364719 -3.186764 4.785206 -26.076360 -4.784303 -2.734212 -4.751979 -5.161911 -23.730149 -36.362038 60.720180 100.862671 -22.906485 1.162698 -23.092498 -20.441054 -3.397328 -8.233911 2.487029 2.716418 2.023706 -5.691013 -87.440164 -0.321150 2.042695 -0.563099 6.413453 5.845353 -6.212726 -11.911984 13.577977 -8.877750 27.337243 1.942098 -3.891830 16.347209 -9.887617 2.111432 -0.039445 -0.014741 -0.260197 15.434595 13.542050 9.506298 13.494511 0.610893 -0.156951 10.409769 -3.389453 -6.487162 0.005276 -0.157928 0.007102
1.182393 88.421014 25.887562 -54.399921 -8.348691 -0.096511 5.314926 3.072377 -0.790497 3.059112 1.736095 -0.487098 3.822015 2.173985 -0.594396 3.059112 1.736095 -0.487098 3.179346 0.457678 -3.167653 4.762021 -25.962426 -4.751158 -2.721788 -4.725398 -5.150954 -23.650135 -36.112247 60.648476 100.645005 -22.773215 1.236554 -23.101557 -20.363902 -3.346619 -8.251673 2.441712 2.715155 2.073695 -5.794931 -87.301074 -0.523018 2.005141 -0.759804 6.710330 5.956794 -6.462294 -11.914221 13.543014 -8.877544 27.327470 2.080902 -3.854498 16.358351 -9.921204 2.179688 -0.040203 -0.025008 -0.284408 15.449244 13.536773 9.518331 13.486041 0.696498 -0.124671 10.403430 -3.388330 -6.513822 0.006933 -0.176104 0.009965
1.188737 88.425853 25.890694 -54.394510 -8.394281 -0.096678 5.319026 3.090255 -0.787131 3.062833 1.744069 -0.484580 3.826672 2.183935 -0.591165 3.062833 1.744069 -0.484580 3.172684 0.552819 -3.152394 4.742018 -25.846029 -4.723185 -2.700898 -4.679989 -5.133789 -23.589901 -35.867600 60.589096 100.395438 -22.639387 1.341234 -23.126562 -20.281318 -3.278725 -8.268792 2.391522 2.710857 2.129745 -5.908673 -87.165484 -0.722437 1.962695 -0.949446 6.953872 6.031990 -6.668610 -11.927747 13.502386 -8.883631 27.311584 2.220123 -3.817003 16.383294 -9.950803 2.253389 -0.041875 -0.036115 -0.306968 15.461600 13.515954 9.526224 13.467670 0.802074 -0.085667 10.393944 -3.390033 -6.545763 0.010339 -0.194132 0.013995
1.197728 88.431834 25.894860 -54.366315 -8.442286 -0.088001 5.309006 3.114334 -0.790942 3.063958 1.751876 -0.482487 3.828083 2.193677 -0.588478 3.063958 1.751876 -0.482487 3.166722 0.650492 -3.140649 4.723797 -25.726745 -4.699618 -2.676247 -4.615916 -5.109009 -23.562089 -35.630472 60.547419 100.111619 -22.514717 1.495490 -23.165558 -20.186679 -3.198056 -8.288111 2.341212 2.704695 2.191239 -6.032447 -87.035968 -0.916556 1.909873 -1.135816 7.131311 6.070383 -6.825432 -11.963843 13.461452 -8.902502 27.296776 2.354899 -3.780942 16.414038 -9.980536 2.338986 -0.056402 -0.039298 -0.334107 15.453612 13.486428 9.519890 13.435891 0.922647 -0.038807 10.388453 -3.365307 -6.578277 0.012898 -0.236949 0.016758
1.209374 88.438757 25.896739 -54.338306 -8.479259 -0.082930 5.307249 3.127718 -0.789493 3.061820 1.759710 -0.479224 3.825420 2.203438 -0.584345 3.061820 1.759710 -0.479224 3.162746 0.751161 -3.133764 4.709279 -25.604042 -4.682429 -2.644166 -4.529137 -5.078581 -23.565870 -35.405450 60.518429 99.790780 -22.403548 1.697993 -23.212996 -20.069933 -3.105812 -8.304749 2.290762 2.693011 2.253661 -6.165167 -86.913175 -1.102859 1.842779 -1.318668 7.242138 6.076003 -6.937071 -11.994546 13.415485 -8.917623 27.285723 2.478111 -3.748361 16.428116 -9.991544 2.437051 -0.069819 -0.051261 -0.360651 15.447862 13.438899 9.513545 13.396189 1.054460 0.012986 10.387987 -3.370741 -6.614181 0.017455 -0.250821 0.019130
1.222479 88.446760 25.897562 -54.299687 -8.513144 -0.080742 5.300043 3.138889 -0.787704 3.055480 1.767681 -0.473838 3.817513 2.213349 -0.577577 3.055480 1.767681 -0.473838 3.162367 0.853070 -3.131322 4.700425 -25.480075 -4.671693 -2.597101 -4.416984 -5.046005 -23.588739 -35.188711 60.493829 99.437310 -22.299601 1.932577 -23.269027 -19.932253 -3.003894 -8.308203 2.237924 2.676540 2.311394 -6.306943 -86.800985 -1.281773 1.762805 -1.496241 7.294862 6.053636 -7.008928 -12.034393 13.373690 -8.932599 27.273580 2.585261 -3.721191 16.440560 -9.989094 2.549867 -0.089543 -0.064585 -0.389892 15.431997 13.380499 9.505303 13.353935 1.195938 0.071007 10.390520 -3.378866 -6.652735 0.022071 -0.260819 0.021221
